<svg width="276" height="64" viewBox="0 0 276 64" fill="none" xmlns="http://www.w3.org/2000/svg" role="img" aria-labelledby="title desc">
  <title id="title">Oxygen Group</title>
  <desc id="desc">Oxygen Group parent brand logo</desc>
  <defs>
    <linearGradient id="lab" x1="9" y1="18" x2="41" y2="46" gradientUnits="userSpaceOnUse">
      <stop stop-color="#173966"/>
      <stop offset="1" stop-color="#285B8F"/>
    </linearGradient>
    <linearGradient id="care" x1="18" y1="10" x2="51" y2="42" gradientUnits="userSpaceOnUse">
      <stop stop-color="#4D92AB"/>
      <stop offset="1" stop-color="#7BAFBB"/>
    </linearGradient>
    <linearGradient id="learn" x1="19" y1="44" x2="50" y2="16" gradientUnits="userSpaceOnUse">
      <stop stop-color="#6F987D"/>
      <stop offset="1" stop-color="#2F7A43"/>
    </linearGradient>
  </defs>
  <g>
    <path d="M31.8 8.4C18.7 8.4 8.1 19 8.1 32.1c0 13.1 10.6 23.7 23.7 23.7 8.8 0 16.5-4.8 20.6-11.9-4 2.4-8.6 3.7-13.6 3.7-14.5 0-26.2-11.7-26.2-26.2 0-2.6.4-5.1 1.1-7.4-3.5 4.3-5.6 9.7-5.6 15.7" fill="url(#lab)" opacity=".94"/>
    <path d="M31.9 8.2c13.1 0 23.7 10.6 23.7 23.7S45 55.6 31.9 55.6c-3.6 0-7.1-.8-10.1-2.3 4.4-1.1 8.5-3.4 11.9-6.7 10.2-10.2 10.2-26.8 0-37-.6-.5-1.2-1-1.8-1.4Z" fill="url(#care)" opacity=".78"/>
    <path d="M15.7 14.8c4.1-4.1 9.8-6.6 16.1-6.6 6.3 0 12 2.5 16.1 6.6-4.7-.9-9.7-.6-14.5 1.2-13.6 4.9-20.6 19.9-15.8 33.5.5 1.5 1.2 2.9 2 4.2-7-4.2-11.6-11.8-11.6-20.5 0-7.2 2.9-13.7 7.7-18.4Z" fill="url(#learn)" opacity=".82"/>
    <circle cx="31.8" cy="31.9" r="12.5" fill="#FFFFFF" opacity=".88"/>
    <circle cx="31.8" cy="31.9" r="7.1" fill="#173966"/>
  </g>
  <g fill="#173966">
    <text x="76" y="31" font-family="Plus Jakarta Sans, Inter, Arial, sans-serif" font-size="24" font-weight="800" letter-spacing="-.4">Oxygen Group</text>
    <text x="77" y="49" font-family="Plus Jakarta Sans, Inter, Arial, sans-serif" font-size="10" font-weight="700" letter-spacing="2.2" fill="#526176">HEALTH • CARE • EDUCATION</text>
  </g>
</svg>
